<svg
                          class="svg-drop"
                          xmlns="http://www.w3.org/2000/svg"
                          width="24"
                          height="24"
                          viewBox="0 0 24 24"
                          fill="none"
                        >
                          <path
                            d="M11.8386 17.9956C12.01 17.9956 12.1719 17.9639 12.3242 17.9004C12.4766 17.8306 12.6162 17.7258 12.7432 17.5862L19.5605 10.626C19.7827 10.4038 19.8938 10.1372 19.8938 9.82617C19.8938 9.61035 19.8398 9.41675 19.7319 9.24536C19.6304 9.06763 19.4939 8.92798 19.3225 8.82642C19.1511 8.72485 18.9575 8.67407 18.7417 8.67407C18.4307 8.67407 18.1545 8.7915 17.9133 9.02637L11.4197 15.6914H12.2671L5.76392 9.02637C5.52905 8.7915 5.25293 8.67407 4.93555 8.67407C4.71973 8.67407 4.52612 8.72485 4.35474 8.82642C4.18335 8.92798 4.04688 9.06763 3.94531 9.24536C3.84375 9.41675 3.79297 9.61035 3.79297 9.82617C3.79297 9.98486 3.82153 10.1309 3.87866 10.2642C3.93579 10.3911 4.01831 10.5117 4.12622 10.626L10.9341 17.5957C11.207 17.8623 11.5085 17.9956 11.8386 17.9956Z"
                            fill="#171717"
                            style="
                              fill: #171717;
                              fill: color(display-p3 0.0902 0.0902 0.0902);
                              fill-opacity: 1;
                            "
                          />
                        </svg>